<?xml version="1.0" encoding="utf-8"?>
<!-- Generator: Adobe Illustrator 18.1.1, SVG Export Plug-In . SVG Version: 6.00 Build 0)  -->
<!DOCTYPE svg PUBLIC "-//W3C//DTD SVG 1.1//EN" "http://www.w3.org/Graphics/SVG/1.1/DTD/svg11.dtd">
<svg version="1.1" xmlns="http://www.w3.org/2000/svg" xmlns:xlink="http://www.w3.org/1999/xlink" x="0px" y="0px"
     viewBox="0 0 1296 1728" enable-background="new 0 0 1296 1728" xml:space="preserve">
<g id="Background_xA0_Image_1_">

        <image overflow="visible" width="5400" height="7200" id="Background_xA0_Image" xlink:href="934E39DE608B716B.jpg"  transform="matrix(0.24 0 0 0.24 0 0)">
    </image>
</g>
<g id="Group_1_1_">
    <g id="_________________The_man_in_black_fled_across_the_desert_x2C__and_t_1_" display="none">
        <polygon display="inline" fill="none" points="655.7,-1603.7 985.4,1842.5 325.9,1842.5         "/>

            <text id="_________________The_man_in_black_fled_across_the_desert_x2C__and_t" transform="matrix(1 0 0 1 479.7344 297.4854)" display="inline"><tspan x="0" y="0" fill="#FAF7E7" font-family="'Novecentowide-Medium'" font-size="95.28">The</tspan><tspan x="148" y="0" fill="#FAF7E7" font-family="'Novecentowide-Medium'" font-size="95.28" letter-spacing="5"> </tspan><tspan x="173.6" y="0" fill="#FAF7E7" font-family="'Novecentowide-Medium'" font-size="95.28">man </tspan><tspan x="-10.3" y="107.8" fill="#FAF7E7" font-family="'Novecentowide-Medium'" font-size="95.28">in</tspan><tspan x="64.9" y="107.8" fill="#FAF7E7" font-family="'Novecentowide-Medium'" font-size="95.28" letter-spacing="67"> </tspan><tspan x="152.2" y="107.8" fill="#FAF7E7" font-family="'Novecentowide-Medium'" font-size="95.28">black </tspan><tspan x="-20.6" y="215.5" fill="#FAF7E7" font-family="'Novecentowide-Medium'" font-size="95.28" letter-spacing="120">fle</tspan><tspan x="318.8" y="215.5" fill="#FAF7E7" font-family="'Novecentowide-Medium'" font-size="95.28">d </tspan><tspan x="-30.9" y="323.3" fill="#FAF7E7" font-family="'Novecentowide-Medium'" font-size="95.28">across</tspan><tspan x="216.6" y="323.3" fill="#FAF7E7" font-family="'Novecentowide-Medium'" font-size="95.28" letter-spacing="13"> </tspan><tspan x="250.7" y="323.3" fill="#FAF7E7" font-family="'Novecentowide-Medium'" font-size="95.28">the </tspan><tspan x="-41.2" y="431" fill="#FAF7E7" font-family="'Novecentowide-Medium'" font-size="95.28" letter-spacing="27">desert</tspan><tspan x="373.4" y="431" fill="#FAF7E7" font-family="'Novecentowide-Medium'" font-size="95.28">, </tspan><tspan x="-51.6" y="538.8" fill="#FAF7E7" font-family="'Novecentowide-Medium'" font-size="95.28">and</tspan><tspan x="101" y="538.8" fill="#FAF7E7" font-family="'Novecentowide-Medium'" font-size="95.28" letter-spacing="150"> </tspan><tspan x="271.3" y="538.8" fill="#FAF7E7" font-family="'Novecentowide-Medium'" font-size="95.28">the </tspan><tspan x="-61.9" y="646.6" fill="#FAF7E7" font-family="'Novecentowide-Medium'" font-size="95.28" letter-spacing="5">gunslinge</tspan><tspan x="382.6" y="646.6" fill="#FAF7E7" font-family="'Novecentowide-Medium'" font-size="95.28">r </tspan><tspan x="-72.2" y="754.3" fill="#FAF7E7" font-family="'Novecentowide-Medium'" font-size="95.28" letter-spacing="21">followe</tspan><tspan x="370.3" y="754.3" fill="#FAF7E7" font-family="'Novecentowide-Medium'" font-size="95.28">d</tspan></text>
    </g>
    <g id="Rectangle_1">
        <g>
            <rect x="16.5" y="16.5" fill="#FAF7E7" width="1262.9" height="1694.9"/>
        </g>
        <g>
            <path fill="#FFFFFF" d="M1262.9,33.1v1661.8H33.1V33.1H1262.9 M1296,0H0v1728h1296V0L1296,0z"/>
        </g>
    </g>
    <g id="Rectangle_2">
        <g>
            <polygon fill="#2E292F" points="926.4,33.1 369.8,33.1 261.8,1694.8 1034.4,1694.8             "/>
        </g>
    </g>
    <g id="_The_man_in_black_fled_across_the_desert_x2C__and_the_gunslinger_fo_1_">
        <g id="text">
            <path fill="#FAF7E7" d="M450,241v45.6h-10.4V241h-18.7v-9.7h47.7v9.7H450z"/>
            <path fill="#FAF7E7" d="M515.8,286.5v-23.3h-26.4v23.3H479v-55.2h10.4v22.3h26.4v-22.3h10.4v55.2H515.8z"/>
            <path fill="#FAF7E7" d="M540,231.3h40.3v9.7h-30v12.6h22.6v9.2h-22.6v14.1h30.5v9.7H540V231.3z"/>
            <path fill="#FAF7E7" d="M739.1,260.2l0.1-13.7h-0.3l-14.2,26.7h-6.8l-14.4-27.3h-0.2c0,0.1,0.1,8.7,0.1,13.7v26.9h-10.1v-55.2
                h12.6l10.2,18.5c3.6,6.4,5.5,10.7,5.6,10.7h0.3c0.2,0,2.3-4.2,5.8-10.8l10-18.4h11.6v55.2h-10.4V260.2z"/>
            <path fill="#FAF7E7" d="M773.7,273.5l-4.8,13h-10.6l21.6-55.2h12.5l21.6,55.2h-10.8l-4.8-13H773.7z M791.2,254
                c-3.6-9.5-4.9-13.9-5-14h-0.3l-5.3,14.6l-3.6,10h18.2L791.2,254z"/>
            <path fill="#FAF7E7" d="M861.5,286.5l-28.1-39.4h-0.3c0,0.1,0.2,6,0.2,12.5v26.8h-10.4v-55.2h10.7l28.1,38.6h0.2
                c0-0.1-0.1-5.5-0.1-11.3v-27.2h10.4v55.2H861.5z"/>
            <path fill="#FAF7E7" d="M416.9,363.1h10.4v55.2h-10.4V363.1z"/>
            <path fill="#FAF7E7" d="M479.5,418.3l-28.1-39.4h-0.3c0,0.1,0.2,6,0.2,12.5v26.8H441v-55.2h10.7l28.1,38.6h0.2
                c0-0.1-0.1-5.5-0.1-11.3v-27.2h10.4v55.2H479.5z"/>
            <path fill="#FAF7E7" d="M645.4,389.1c5.6,1.3,11.6,5.4,11.6,13.5c0,8.6-6.6,15.7-19.8,15.7h-24v-55.2h23.4
                c10.2,0,17.1,6.6,17.1,14.1c0,7-4.4,10.4-8.3,11.5V389.1z M634.7,385.7c4.6,0,8.7-2.4,8.7-7.1c0-3.8-3-6.9-8.6-6.9h-11.1v14
                H634.7z M636.7,409.6c5.8,0,9.6-2.9,9.6-7.7c0-5-4-8.1-9.8-8.1h-12.9v15.8H636.7z"/>
            <path fill="#FAF7E7" d="M667.2,363.1h10.4v45.6h27.2v9.7h-37.6V363.1z"/>
            <path fill="#FAF7E7" d="M726.1,405.3l-4.8,13h-10.6l21.6-55.2h12.5l21.6,55.2h-10.8l-4.8-13H726.1z M743.6,385.7
                c-3.6-9.5-4.9-13.9-5-14h-0.3l-5.3,14.6l-3.6,10h18.2L743.6,385.7z"/>
            <path fill="#FAF7E7" d="M825.4,403.3c-4.5,9.6-13.8,16.1-26.3,16.1c-17.2,0-29.5-12-29.5-28.6S781.9,362,799,362
                c11.5,0,21.7,5.5,26.2,16.3l-9.9,2.7c-1.5-2.3-5.8-9.5-16.3-9.5c-11.2,0-19,7.9-19,19.2c0,11.5,8,19.2,18.9,19.2
                c8.1,0,13.6-4.1,16.6-9.3L825.4,403.3z"/>
            <path fill="#FAF7E7" d="M855,391.9l-9.6,10.1v16.4h-10.4v-55.2h10.4v14.4l-0.1,12.2h0.3c1.4-1.4,3.6-3.7,6.6-7l18.2-19.6h12.9
                L862.6,385l22.4,33.3h-11.9L855,391.9z"/>
            <path fill="#FAF7E7" d="M419.8,504.5v15.2h21v9.7h-21V550h-10.4v-55.2h38.9v9.7H419.8z"/>
            <path fill="#FAF7E7" d="M552.3,494.8h10.4v45.6h27.2v9.7h-37.6V494.8z"/>
            <path fill="#FAF7E7" d="M693.7,494.8h40.3v9.7h-30v12.6h22.6v9.2h-22.6v14.1h30.5v9.7h-40.8V494.8z"/>
            <path fill="#FAF7E7" d="M859.8,494.8c17.8,0,30.7,10.5,30.7,27.8c0,17.5-12.9,27.4-30.4,27.4h-20.5v-55.2H859.8z M860,540.4
                c11.9,0,20-5.5,20-17.8c0-12.1-8-18.1-20.3-18.1h-9.8v35.9H860z"/>
            <path fill="#FAF7E7" d="M412.5,668.8l-4.8,13h-10.6l21.6-55.2h12.5l21.6,55.2h-10.8l-4.8-13H412.5z M430,649.3
                c-3.6-9.5-4.9-13.9-5-14h-0.3l-5.3,14.6l-3.6,10H434L430,649.3z"/>
            <path fill="#FAF7E7" d="M545.1,666.8c-4.5,9.6-13.8,16.1-26.3,16.1c-17.2,0-29.5-12-29.5-28.6s12.3-28.8,29.4-28.8
                c11.5,0,21.7,5.5,26.2,16.3l-9.9,2.7c-1.5-2.3-5.8-9.5-16.3-9.5c-11.2,0-19,7.9-19,19.2c0,11.5,8,19.2,18.9,19.2
                c8.1,0,13.6-4.1,16.6-9.3L545.1,666.8z"/>
            <path fill="#FAF7E7" d="M609,661.4c-1.8,0.1-4.6,0.1-5.7,0.1h-4.8v20.3H588v-55.2h19.8c14.1,0,22.3,6.5,22.3,17.5
                c0,8.5-4.8,13.5-11.3,15.4l13.6,22.4h-11.1L609,661.4z M608.4,653.4c7.4,0,11.2-3,11.2-8.8c0-5.9-4-8.7-11.2-8.7h-10v17.5H608.4z
                "/>
            <path fill="#FAF7E7" d="M700.8,625.5c16.8,0,29.4,12,29.4,28.7c0,16.8-12.6,28.7-29.4,28.7c-16.7,0-29.2-11.9-29.2-28.7
                C671.6,637.5,684.2,625.5,700.8,625.5z M700.8,673.4c10.8,0,18.8-7.8,18.8-19.2s-8-19.2-18.8-19.2s-18.7,7.8-18.7,19.2
                S690,673.4,700.8,673.4z"/>
            <path fill="#FAF7E7" d="M779.5,665.5c0.7,5.1,5.2,9.3,13.5,9.3c6.5,0,10.8-2.6,10.8-8.1c0-7.4-7.6-7.9-17.3-10
                c-7-1.6-15.3-4.3-15.3-15.2c0-10.7,7.8-16.1,20.6-16.1c11.7,0,19.5,4.6,22,13.6l-9.2,2.4c-1.3-4.8-5.1-7.8-12.2-7.8
                c-6.7,0-10.7,2.6-10.7,7.4c0,5.7,5.5,6.9,14.3,8.6c7.1,1.4,18.2,4,18.2,16.9c0,11.4-8.9,16.4-21.3,16.4c-9.2,0-20.6-2.7-23-14.9
                L779.5,665.5z"/>
            <path fill="#FAF7E7" d="M863.4,665.5c0.7,5.1,5.2,9.3,13.5,9.3c6.5,0,10.8-2.6,10.8-8.1c0-7.4-7.6-7.9-17.3-10
                c-7-1.6-15.3-4.3-15.3-15.2c0-10.7,7.8-16.1,20.6-16.1c11.7,0,19.5,4.6,22,13.6l-9.2,2.4c-1.3-4.8-5.1-7.8-12.2-7.8
                c-6.7,0-10.7,2.6-10.7,7.4c0,5.7,5.5,6.9,14.3,8.6c7.1,1.4,18.2,4,18.2,16.9c0,11.4-8.9,16.4-21.3,16.4c-9.2,0-20.6-2.7-23-14.9
                L863.4,665.5z"/>
            <path fill="#FAF7E7" d="M420.2,768v45.6h-10.4V768h-18.7v-9.7h47.7v9.7H420.2z"/>
            <path fill="#FAF7E7" d="M662.6,813.6v-23.3h-26.4v23.3h-10.4v-55.2h10.4v22.3h26.4v-22.3h10.4v55.2H662.6z"/>
            <path fill="#FAF7E7" d="M863.3,758.3h40.3v9.7h-30v12.6h22.6v9.2h-22.6v14.1h30.5v9.7h-40.8V758.3z"/>
            <path fill="#FAF7E7" d="M407.4,890.1c17.8,0,30.7,10.5,30.7,27.8c0,17.5-12.9,27.4-30.4,27.4h-20.5v-55.2H407.4z M407.5,935.7
                c11.9,0,20-5.5,20-17.8c0-12.1-8-18.1-20.3-18.1h-9.8v35.9H407.5z"/>
            <path fill="#FAF7E7" d="M481.6,890.1H522v9.7h-30v12.6h22.6v9.2H492v14.1h30.5v9.7h-40.8V890.1z"/>
            <path fill="#FAF7E7" d="M572.9,929.1c0.7,5.1,5.2,9.3,13.5,9.3c6.5,0,10.8-2.6,10.8-8.1c0-7.4-7.6-7.9-17.3-10
                c-7-1.6-15.3-4.3-15.3-15.2c0-10.7,7.8-16.1,20.6-16.1c11.7,0,19.5,4.6,22,13.6l-9.2,2.4c-1.3-4.8-5.1-7.8-12.2-7.8
                c-6.7,0-10.7,2.6-10.7,7.4c0,5.7,5.5,6.9,14.3,8.6c7.1,1.4,18.2,4,18.2,16.9c0,11.4-8.9,16.4-21.3,16.4c-9.2,0-20.6-2.7-23-14.9
                L572.9,929.1z"/>
            <path fill="#FAF7E7" d="M651.1,890.1h40.3v9.7h-30v12.6H684v9.2h-22.6v14.1h30.5v9.7h-40.8V890.1z"/>
            <path fill="#FAF7E7" d="M757.6,924.9c-1.8,0.1-4.6,0.1-5.7,0.1H747v20.3h-10.4v-55.2h19.8c14.1,0,22.3,6.5,22.3,17.5
                c0,8.5-4.8,13.5-11.3,15.4l13.6,22.4h-11.1L757.6,924.9z M757,916.9c7.4,0,11.2-3,11.2-8.8c0-5.9-4-8.7-11.2-8.7h-10v17.5H757z"
                />
            <path fill="#FAF7E7" d="M847.8,899.8v45.6h-10.4v-45.6h-18.7v-9.7h47.7v9.7H847.8z"/>
            <path fill="#FAF7E7" d="M898.1,940.2c0-3.2,2.4-5.5,6-5.5c4.1,0,7,2.9,7,7.6c0,5-3.6,10.9-9.9,13l-4.1-4.4c3-0.9,5.1-3.7,5.8-6
                C900,945.1,898.1,943.3,898.1,940.2z"/>
            <path fill="#FAF7E7" d="M390.1,1064.1l-4.8,13h-10.6l21.6-55.2h12.5l21.6,55.2h-10.8l-4.8-13H390.1z M407.7,1044.5
                c-3.6-9.5-4.9-13.9-5-14h-0.3l-5.3,14.6l-3.6,10h18.2L407.7,1044.5z"/>
            <path fill="#FAF7E7" d="M477.9,1077.1l-28.1-39.4h-0.3c0,0.1,0.2,6,0.2,12.5v26.8h-10.4v-55.2H450l28.1,38.6h0.2
                c0-0.1-0.1-5.5-0.1-11.3v-27.2h10.4v55.2H477.9z"/>
            <path fill="#FAF7E7" d="M522.6,1021.9c17.8,0,30.7,10.5,30.7,27.8c0,17.5-12.9,27.4-30.4,27.4h-20.5v-55.2H522.6z M522.8,1067.4
                c11.9,0,20-5.5,20-17.8c0-12.1-8-18.1-20.3-18.1h-9.8v35.9H522.8z"/>
            <path fill="#FAF7E7" d="M788.3,1031.5v45.6h-10.4v-45.6h-18.7v-9.7h47.7v9.7H788.3z"/>
            <path fill="#FAF7E7" d="M854.1,1077.1v-23.3h-26.4v23.3h-10.4v-55.2h10.4v22.3h26.4v-22.3h10.4v55.2H854.1z"/>
            <path fill="#FAF7E7" d="M878.2,1021.9h40.3v9.7h-30v12.6h22.6v9.2h-22.6v14.1h30.5v9.7h-40.8V1021.9z"/>
            <path fill="#FAF7E7" d="M416.8,1208.8c0-5.5,0.1-6.5,0.1-6.9h-0.2c-2.7,3.1-9.1,8-19,8c-16.4,0-28.9-11.9-28.9-28.7
                c0-16.6,12.3-28.7,29.4-28.7c10.9,0,21.6,5,26.3,16.3l-9.5,2.6c-2.6-4.9-8.4-9.5-16.8-9.5c-11.2,0-19,7.4-19,19.3
                c0,11.5,7.9,19.3,20.3,19.3c7.9,0,14.9-3.9,17.2-7v-5.7h-15.9v-9.2h25.2v30.2H416.8z"/>
            <path fill="#FAF7E7" d="M488.4,1184.1c0,17.7-9.3,25.8-24.5,25.8s-24.4-8.2-24.4-25.8v-30.5h10.6v31.5c0,10.5,4.5,15.4,14,15.4
                c9.4,0,14-4.9,14-15.4v-31.5h10.3V1184.1z"/>
            <path fill="#FAF7E7" d="M541.8,1208.8l-28.1-39.4h-0.3c0,0.1,0.2,6,0.2,12.5v26.8h-10.4v-55.2h10.7l28.1,38.6h0.2
                c0-0.1-0.1-5.5-0.1-11.3v-27.2h10.4v55.2H541.8z"/>
            <path fill="#FAF7E7" d="M573.9,1192.6c0.7,5.1,5.2,9.3,13.5,9.3c6.5,0,10.8-2.6,10.8-8.1c0-7.4-7.6-7.9-17.3-10
                c-7-1.6-15.3-4.3-15.3-15.2c0-10.7,7.8-16.1,20.6-16.1c11.7,0,19.5,4.6,22,13.6l-9.2,2.4c-1.3-4.8-5.1-7.8-12.2-7.8
                c-6.7,0-10.7,2.6-10.7,7.4c0,5.7,5.5,6.9,14.3,8.6c7.1,1.4,18.2,4,18.2,16.9c0,11.4-8.9,16.4-21.3,16.4c-9.2,0-20.6-2.7-23-14.9
                L573.9,1192.6z"/>
            <path fill="#FAF7E7" d="M620.7,1153.6h10.4v45.6h27.2v9.7h-37.6V1153.6z"/>
            <path fill="#FAF7E7" d="M670.5,1153.6h10.4v55.2h-10.4V1153.6z"/>
            <path fill="#FAF7E7" d="M735.1,1208.8l-28.1-39.4h-0.3c0,0.1,0.2,6,0.2,12.5v26.8h-10.4v-55.2h10.7l28.1,38.6h0.2
                c0-0.1-0.1-5.5-0.1-11.3v-27.2h10.4v55.2H735.1z"/>
            <path fill="#FAF7E7" d="M806,1208.8c0-5.5,0.1-6.5,0.1-6.9h-0.2c-2.7,3.1-9.1,8-19,8c-16.4,0-28.9-11.9-28.9-28.7
                c0-16.6,12.3-28.7,29.4-28.7c10.9,0,21.6,5,26.3,16.3l-9.5,2.6c-2.6-4.9-8.4-9.5-16.8-9.5c-11.2,0-19,7.4-19,19.3
                c0,11.5,7.9,19.3,20.3,19.3c7.9,0,14.9-3.9,17.2-7v-5.7H790v-9.2h25.2v30.2H806z"/>
            <path fill="#FAF7E7" d="M829.5,1153.6h40.3v9.7h-30v12.6h22.6v9.2h-22.6v14.1h30.5v9.7h-40.8V1153.6z"/>
            <path fill="#FAF7E7" d="M904.7,1188.4c-1.8,0.1-4.6,0.1-5.7,0.1h-4.8v20.3h-10.4v-55.2h19.8c14.1,0,22.3,6.5,22.3,17.5
                c0,8.5-4.8,13.5-11.3,15.4l13.6,22.4H917L904.7,1188.4z M904.1,1180.4c7.4,0,11.2-3,11.2-8.8c0-5.9-4-8.7-11.2-8.7h-10v17.5
                H904.1z"/>
            <path fill="#FAF7E7" d="M375.2,1295v15.2h21v9.7h-21v20.7h-10.4v-55.2h38.9v9.7H375.2z"/>
            <path fill="#FAF7E7" d="M454.9,1284.3c16.8,0,29.4,12,29.4,28.7c0,16.8-12.6,28.7-29.4,28.7c-16.7,0-29.2-11.9-29.2-28.7
                C425.7,1296.3,438.2,1284.3,454.9,1284.3z M454.9,1332.2c10.8,0,18.8-7.8,18.8-19.2s-8-19.2-18.8-19.2s-18.7,7.8-18.7,19.2
                S444,1332.2,454.9,1332.2z"/>
            <path fill="#FAF7E7" d="M510.9,1285.4h10.4v45.6h27.2v9.7h-37.6V1285.4z"/>
            <path fill="#FAF7E7" d="M575.2,1285.4h10.4v45.6h27.2v9.7h-37.6V1285.4z"/>
            <path fill="#FAF7E7" d="M662.4,1284.3c16.8,0,29.4,12,29.4,28.7c0,16.8-12.6,28.7-29.4,28.7c-16.7,0-29.2-11.9-29.2-28.7
                C633.2,1296.3,645.7,1284.3,662.4,1284.3z M662.4,1332.2c10.8,0,18.8-7.8,18.8-19.2s-8-19.2-18.8-19.2s-18.7,7.8-18.7,19.2
                S651.5,1332.2,662.4,1332.2z"/>
            <path fill="#FAF7E7" d="M755.9,1320c-3.3-10.3-4.8-15.9-4.9-16h-0.2c-0.1,0.1-1.8,5.7-5,16.1l-6.5,20.5h-10.7l-17.5-55.2h11
                l7.4,23.8c3.6,11.7,5.2,17.9,5.3,18h0.2c0.1-0.1,1.9-6.2,4.8-15.9l6-19.6h10.9l5.8,19.6c3,9.8,4.5,15.8,4.6,15.9h0.2
                c0.1-0.1,1.7-6.2,5.4-18l7.5-23.8h10.1l-17.5,55.2h-10.7L755.9,1320z"/>
            <path fill="#FAF7E7" d="M815.5,1285.4h40.3v9.7h-30v12.6h22.6v9.2h-22.6v14.1h30.5v9.7h-40.8V1285.4z"/>
            <path fill="#FAF7E7" d="M904.5,1285.4c17.8,0,30.7,10.5,30.7,27.8c0,17.5-12.9,27.4-30.4,27.4h-20.5v-55.2H904.5z M904.7,1330.9
                c11.9,0,20-5.5,20-17.8c0-12.1-8-18.1-20.3-18.1h-9.8v35.9H904.7z"/>
        </g>
    </g>
</g>
</svg>
